# xmcd
#
# Track frame offsets: 
#        150
#        18922
#        38760
#        55929
#
# Disc length: 1130 seconds
#
# Revision: 1
# Processed by: cddbd v1.5.2PL0 Copyright (c) Steve Scherf et al.
# Submitted via: ExactAudioCopyFreeDBPlugin 1.0
#
DISCID=27046804
DTITLE=Hot Chip - Why Make Sense?  [Disc 2 - Seperate EP]
DYEAR=2015
DGENRE=Pop
TTITLE0=Burning Up
TTITLE1=Separate
TTITLE2=Move With Me
TTITLE3=Re-Harmonize
EXTD=
EXTT0=
EXTT1=
EXTT2=
EXTT3=
PLAYORDER=
